<svg width="22" height="20" viewBox="0 0 22 20" fill="none" xmlns="http://www.w3.org/2000/svg">
<path d="M12.1111 14.5739V15.6797C12.1111 16.5595 11.7599 17.4033 11.1348 18.0254C10.5097 18.6475 9.66183 18.997 8.77778 18.997H4.33333C3.44928 18.997 2.60143 18.6475 1.97631 18.0254C1.35119 17.4033 1 16.5595 1 15.6797V4.622C1 3.74219 1.35119 2.89842 1.97631 2.2763C2.60143 1.65419 3.44928 1.30469 4.33333 1.30469H8.77778C9.66183 1.30469 10.5097 1.65419 11.1348 2.2763C11.7599 2.89842 12.1111 3.74219 12.1111 4.622V5.72776M16.5556 14.5739L21 10.1508L16.5556 14.5739ZM21 10.1508L16.5556 5.72776L21 10.1508ZM21 10.1508H5.44444H21Z" stroke="#FF5656" stroke-width="1.5" stroke-linecap="round" stroke-linejoin="round"/>
</svg>
